<?xml version="1.0" encoding="UTF-8"?>
<svg width="32px" height="32px" viewBox="0 0 32 32" version="1.1" xmlns="http://www.w3.org/2000/svg" xmlns:xlink="http://www.w3.org/1999/xlink">
    <title>faster</title>
    <defs>
        <linearGradient x1="4.6875%" y1="50%" x2="95.3125%" y2="50%" id="linearGradient-1">
            <stop stop-color="#FFFFFF" stop-opacity="0" offset="0%"></stop>
            <stop stop-color="#FFFFFF" offset="48.6%"></stop>
            <stop stop-color="#FFFFFF" stop-opacity="0" offset="100%"></stop>
        </linearGradient>
        <polygon id="path-2" points="0 3.909864 4.95781074 3.909864 4.95781074 0 0 0"></polygon>
    </defs>
    <g id="Page-1" stroke="none" stroke-width="1" fill="none" fill-rule="evenodd">
        <g id="faster">
            <g fill-rule="nonzero">
                <rect id="Rectangle" fill="#FFFFFF" x="0" y="0" width="32" height="32" rx="16"></rect>
                <polygon id="Path" fill-opacity="0.1" fill="#FFFFFF" points="0 23 32 23 32 24 0 24"></polygon>
                <polygon id="Path" fill-opacity="0.1" fill="#FFFFFF" points="5 0 5 32 4 32 4 0"></polygon>
                <polygon id="Path" fill-opacity="0.1" fill="#FFFFFF" points="0 8 32 8 32 9 0 9"></polygon>
                <polygon id="Path" fill="url(#linearGradient-1)" points="0 23 32 23 32 24 0 24"></polygon>
                <polygon id="Path" fill-opacity="0.1" fill="#FFFFFF" points="28 0 28 32 27 32 27 0"></polygon>
            </g>
            <g id="Group" transform="translate(3.000121, 6.000000)">
                <polygon id="Fill-1" fill="#01B49E" points="4.03033195 0 3.99987928 0.0410692813 3.99987928 0.0438442327 6.77445512 3 20.2246882 3 22.9998793 0.0419017667 22.969119 0"></polygon>
                <path d="M16.3744507,8.26726962 L18.9998793,5 L7.99987928,5 L10.6090561,8.24659683 L10.6041499,8.24659683 L13.6205411,12 L13.6496716,12 L15.4809096,9.21111162 C15.4809096,9.21111162 15.3082728,9.28023626 14.8768341,8.82608094 C14.540453,8.47173642 14.522668,8.31765955 14.5306406,8.26726962 L16.3744507,8.26726962 Z" id="Fill-2" fill="#01B49E"></path>
                <g id="Group-6" transform="translate(0.000000, 15.010108)" fill="#474E4D">
                    <polygon id="Fill-4" points="3.44040921 1.56408 1.2886445 1.56408 1.43712532 0.78204 4.80872634 0.78204 4.95720716 0 0.743007673 0 -7.10542736e-15 3.90992 0.842900256 3.90992 1.13986189 2.34612 3.29192839 2.34612"></polygon>
                </g>
                <g id="Group-9" transform="translate(8.027463, 15.010136)">
                    <mask id="mask-3" fill="white">
                        <use xlink:href="#path-2"></use>
                    </mask>
                    <g id="Clip-8"></g>
                    <path d="M1.70420972,0.7952 C1.77181074,0.78652 1.81375959,0.78204 1.82945269,0.78204 L4.80902813,0.78204 L4.95781074,0 L2.00117136,0 C1.9779335,0 1.93417391,0.00168 1.86868542,0.00504 C1.80380051,0.00868 1.7265422,0.02072 1.6366087,0.04032 C1.54727877,0.06076 1.45191304,0.09128 1.34990793,0.133 C1.24850639,0.17444 1.14710486,0.23352 1.04751407,0.3094 C0.951544757,0.38192 0.851953964,0.48496 0.748439898,0.6188 C0.644925831,0.75292 0.571892583,0.93016 0.529943734,1.15108 C0.484675192,1.3902 0.501273657,1.6002 0.580040921,1.78108 C0.659109974,1.96224 0.796122762,2.10336 0.991682864,2.20472 C1.12748849,2.26968 1.25333504,2.30972 1.3695243,2.32428 C1.48601535,2.33856 1.55753964,2.34612 1.58470077,2.34612 L1.83096164,2.34612 L3.21768798,2.34612 C3.22583632,2.34612 3.25601535,2.35032 3.30913043,2.35956 C3.36164194,2.36852 3.41505882,2.38756 3.4684757,2.4164 C3.50680307,2.43796 3.54150895,2.4724 3.5710844,2.52 C3.60156522,2.56704 3.60579028,2.64628 3.58436317,2.75828 C3.55961637,2.88904 3.51314066,2.98116 3.44403069,3.03576 C3.38518159,3.07916 3.32150384,3.1052 3.25390281,3.11444 C3.18539642,3.1234 3.14344757,3.12788 3.12805627,3.12788 L0.148782609,3.12788 L0,3.90992 L2.95603581,3.90992 L2.97957545,3.90992 C3.01488491,3.90992 3.06468031,3.90712 3.12986701,3.9018 C3.1953555,3.89648 3.27080307,3.8836 3.3568133,3.86372 C3.44252174,3.84384 3.53305882,3.81332 3.62932992,3.77188 C3.72469565,3.7296 3.81855243,3.67276 3.91029668,3.60052 C4.00596419,3.528 4.10555499,3.42496 4.20937084,3.29056 C4.31288491,3.157 4.38561637,2.97948 4.42726343,2.75828 C4.47283376,2.52 4.45623529,2.30972 4.37716624,2.12828 C4.29870077,1.9474 4.16078261,1.80824 3.96522251,1.71052 C3.83032225,1.64164 3.7044757,1.6002 3.58798465,1.58564 C3.47149361,1.57108 3.39996931,1.56408 3.37250639,1.56408 L3.24394373,1.56408 L1.73951918,1.56408 C1.73529412,1.56408 1.7078312,1.56128 1.65652685,1.55596 C1.60461893,1.55036 1.55421995,1.533 1.50502813,1.50444 C1.45885422,1.47868 1.42022506,1.44256 1.3879335,1.39552 C1.35594373,1.34848 1.35111509,1.267 1.37284399,1.15108 C1.39759079,1.0206 1.44436829,0.92848 1.51347826,0.87388 C1.57262916,0.83076 1.63570332,0.80444 1.70420972,0.7952 Z" id="Fill-7" fill="#474E4D" mask="url(#mask-3)"></path>
                </g>
                <g id="Group-12" transform="translate(12.168715, 15.010108)" fill="#474E4D">
                    <polygon id="Fill-10" points="4.77817367 0 0.162291317 0 0 0.78204 1.84602241 0.78204 1.19520448 3.90992 2.11838095 3.90992 2.76919888 0.78204 4.61555182 0.78204"></polygon>
                </g>
                <polygon id="Fill-13" fill="#474E4D" points="18.1508227 17.3969105 20.3203297 17.3969105 20.4700558 16.5979404 18.3002445 16.5979404 18.4499706 15.7989702 21.8498489 15.7989702 21.9998793 15 17.7503358 15 16.9998793 19 21.2497271 19 21.3991489 18.2013159 17.999575 18.2013159"></polygon>
                <g id="Group-17" transform="translate(21.173318, 15.010108)" fill="#474E4D">
                    <path d="M1.28894629,1.56408 L1.43742711,0.78204 L3.55629668,0.78204 L3.56233248,0.78204 L3.57349872,0.78204 C3.58526854,0.78204 3.62480307,0.78652 3.69149872,0.7952 C3.75759079,0.80444 3.8101023,0.83076 3.84873146,0.87388 C3.90063939,0.92848 3.91452174,1.02088 3.88977494,1.15108 C3.86834783,1.26364 3.83394373,1.34316 3.78595908,1.3902 C3.73797442,1.43724 3.68848082,1.47168 3.63747826,1.49352 C3.57742199,1.52264 3.5182711,1.54168 3.46032737,1.55036 C3.40178005,1.55932 3.36888491,1.56408 3.36073657,1.56408 L1.28894629,1.56408 Z M3.40841944,2.3296 C3.46877749,2.3226 3.53818926,2.30888 3.61816368,2.289 C3.69783632,2.2694 3.7823376,2.23916 3.87257289,2.1994 C4.1052532,2.10168 4.29568286,1.96224 4.44325831,1.78108 C4.59083376,1.6002 4.68740665,1.3902 4.7323734,1.15108 C4.77492583,0.93016 4.76949361,0.7532 4.71668031,0.6188 C4.66447059,0.48496 4.60381074,0.38192 4.53560614,0.30968 C4.46408184,0.23352 4.38561637,0.17444 4.29990793,0.133 C4.21419949,0.09128 4.13030179,0.06076 4.04881841,0.0406 C3.96612788,0.02072 3.89369821,0.00868 3.82941688,0.00532 C3.76604092,0.00168 3.72228133,0 3.69874169,0 L0.743007673,0 L0,3.90992 L0.842598465,3.90992 L1.14016368,2.34612 L2.22902302,2.34612 L3.6175601,3.90992 L4.81144246,3.90992 L3.40841944,2.3296 Z" id="Fill-15"></path>
                </g>
                <polygon id="Fill-18" fill="#474E4D" points="2.99987928 19 3.89690643 19 5.38965381 16.7943283 6.10285214 19 6.99987928 19 5.7067585 15"></polygon>
            </g>
        </g>
    </g>
</svg>